<?xml version="1.0" encoding="UTF-8"?>
<svg width="165px" height="31px" viewBox="0 0 165 31" version="1.1" xmlns="http://www.w3.org/2000/svg" xmlns:xlink="http://www.w3.org/1999/xlink">
    <!-- Generator: Sketch 61.2 (89653) - https://sketch.com -->
    <title>商标+标准字+标签</title>
    <desc>Created with Sketch.</desc>
    <g id="风格稿" stroke="none" stroke-width="1" fill="none" fill-rule="evenodd">
        <g id="商标" transform="translate(-33.000000, -29.000000)">
            <g id="商标+标准字+标签" transform="translate(33.000000, 29.000000)">
                <g id="logo">
                    <g id="Group-Copy-3">
                        <path d="M17.8647911,10.0219642 C17.8647911,10.0219642 13.6331892,13.6938624 13.9783542,17.9997742 C14.251891,21.4111982 17.5678108,25.004115 22.7286764,24.5708854 C29.3375049,24.0161127 30.6139234,14.5527955 30.6139234,14.5527955 C30.6139234,14.5527955 33.0002333,23.8602261 24.897939,28.5376012 C19.7484058,31.5104321 14.9433456,29.265908 12.3898167,27.0605718 C8.50658059,23.7069348 9.06550568,18.6763495 9.06550568,18.6763495 C9.06550568,18.6763495 6.18255606,21.7652735 7.66192116,25.3435705 C9.01680194,28.6209945 14.7280284,30.5149036 14.7280284,30.5149036 C14.7280284,30.5149036 5.49213955,31.8740232 3.24069483,24.1482096 C1.32169852,17.5632572 6.05417891,13.0209204 10.1138903,11.1380842 C14.8769944,8.92911466 17.8647911,10.0219642 17.8647911,10.0219642" id="Fill-96" fill="#FF891A"></path>
                        <path d="M28.8728817,14.7043567 C28.5259,17.7289191 26.9194553,21.0084192 23.0716874,21.7947726 C19.0560083,22.6153829 16.6259255,18.6214172 16.6259255,18.6214172 C16.6259255,18.6214172 21.0526019,19.4294839 23.2819871,18.579115 C25.9095666,17.5768389 28.8728817,14.7043567 28.8728817,14.7043567 Z M6.31258552,3.1018816 C14.3197216,-3.19517379 27.2702433,0.985129098 28.4813486,7.71316496 C29.3737602,12.67143 26.3441803,18.9189166 16.6259255,16.9355587 C16.6259255,16.9355587 22.4969314,12.8522307 21.4850529,10.2418663 C20.4133113,7.47708594 17.3056151,6.14660028 10.9238689,7.96109551 C3.71727341,10.0100261 0.461822418,17.4314198 0.3626848,19.4643465 C0.3626848,19.4643465 -2.20278221,9.79877476 6.31258552,3.1018816 Z" id="Combined-Shape" fill="#3055EC"></path>
                    </g>
                    <path d="M125.824615,11.5145649 L129.947078,11.5147928 L129.93995,13.1238278 L125.820277,13.1236758 L125.815725,14.797133 L129.542855,14.7972849 L129.535827,16.4063958 L125.811408,16.4063199 L125.806154,18.3586612 L130.280277,18.3588891 L130.273171,19.968 L125.446829,19.9676961 L117.767687,19.9673163 L117.774694,18.3581294 L122.388164,18.3584333 L122.393418,16.4060919 L118.52594,16.405864 L118.533023,14.7966771 L122.397757,14.796981 L122.402155,13.1235239 L118.143824,13.123296 L118.150853,11.5141851 L125.824615,11.5145649 Z M101.035158,4.12956552 L99.9062378,5.62373451 L105.344296,5.62403839 L105.320658,10.6704673 C105.317514,11.3287434 104.838456,11.7814459 104.145049,11.7814459 L100.673287,11.781294 L100.670271,12.8969068 L105.600567,12.8971347 L105.60157,17.4499135 C105.598625,18.1083415 105.119478,18.5612719 104.425973,18.561196 L101.340738,18.5609681 L101.347844,16.9518572 L102.725401,16.9520091 L102.730594,14.5061696 L100.665932,14.5060177 L100.651197,19.9447533 L97.2332731,19.9447533 L97.2478654,14.5057898 L96.228445,14.5057138 L96.2161685,18.5607402 L93.3532019,18.5605882 L93.3571594,12.8965269 L97.2522263,12.8967548 L97.2551656,11.7811421 L93.4370242,11.7809141 L93.4659959,5.62343064 L97.0690376,5.62365854 L98.2287194,4.12956552 L101.035158,4.12956552 Z M70.6251268,6.8525191 C70.6251268,6.8525191 68.8678629,6.86353469 67.3965781,6.96442224 L67.3921798,8.636284 L71.0191764,8.63643594 L71.0121477,10.2455469 L67.3878409,10.2453949 L67.3845303,11.4468533 L70.119368,11.4469292 L70.8033382,18.451853 L67.9404924,18.451853 L67.3817824,12.4611227 L67.3617361,19.9208001 L66.8254088,19.9208001 L64.4969913,19.9214079 L63.9437352,19.9208001 L63.969774,10.245167 L60.4494983,10.2449391 L60.4566807,8.63582819 L63.9740361,8.6360561 L63.9779763,7.17219895 C62.4448808,7.22492181 60.6936086,7.26647715 60.6936086,7.26647715 L60.7040388,5.29590314 C60.7040388,5.29590314 64.3664656,5.10932194 65.5819515,4.99977385 C66.8596503,4.88452806 70.6170547,4.59219725 70.6170547,4.59219725 L70.6251268,6.8525191 Z M43.5710037,10.297586 L57.9616091,10.2983457 L57.9545805,11.9074566 L52.0638069,11.9071527 L52.0612599,12.8936932 L56.9947399,12.894301 L56.9895885,18.8047315 C56.988916,19.4654387 56.5094736,19.9208001 55.8140695,19.9208001 L53.4686463,19.9208001 L53.4826736,14.50326 L53.0066506,14.503184 L52.9927221,19.9208001 L50.6744265,19.9208001 L50.6884867,14.503108 L50.2023416,14.503108 L50.1882814,19.9208001 L47.8699858,19.9208001 L47.8840789,14.5029561 L47.3774152,14.5029561 L47.3633221,19.9208001 L43.9452443,19.9208001 L43.9433339,19.9200404 L43.949602,12.8935413 L48.6433358,12.8936932 L48.6459157,11.9070008 L43.5638213,11.9066969 L43.5710037,10.297586 Z M116.837491,4.43400587 L116.835812,6.25074155 L114.992211,6.37054552 L114.985974,8.69270658 L117.676547,8.69278255 L117.669595,10.3018935 L114.981635,10.3018175 L114.955646,19.9207773 L111.537722,19.9207773 L111.555971,13.1041061 L110.92564,18.2505109 L108.597234,18.250359 L109.455233,11.2454352 L111.561009,11.2455872 L111.563491,10.3015896 L108.648959,10.3014377 L108.655988,8.69232674 L111.567907,8.69247868 L111.573569,6.59252853 L109.57533,6.72236048 L109.59051,4.89491309 L116.837491,4.43400587 Z M92.3526194,9.76411267 L92.3455688,11.3731476 L89.8631023,11.3730716 L89.8590579,12.896337 L92.3395263,12.8964129 L92.3324976,14.5055239 L89.8547189,14.5054479 L89.8451805,18.0240533 L91.9061317,18.0241293 L91.8967506,19.2672949 L89.8410755,19.5667669 L89.8410115,19.5734522 L89.7948254,19.5734522 L89.6186075,19.5992058 C89.4966943,19.6169339 87.5851515,19.6229839 86.771517,19.6247628 L86.4093789,19.6254153 L86.4365752,14.50522 L84.6959844,14.5050681 L84.7029362,12.8959571 L86.4409141,12.8961091 L86.4450354,11.3728437 L84.9440809,11.3727678 L84.9511096,9.76365685 L92.3526194,9.76411267 Z M81.5881592,5.09699968 L81.5564848,18.27179 C81.5549338,18.9315855 81.0754692,19.3858074 80.3809104,19.3858074 L72.2863019,19.3853516 L72.3208939,5.09646789 L81.5881592,5.09699968 Z M42.8852744,5.09480416 L42.8653082,7.00186763 L41.1397798,7.00171569 L41.1311564,10.2974265 L42.8654456,10.2975784 L42.8738635,11.9066893 L41.1269711,11.9065374 L41.1178199,15.4357785 L42.8272016,14.9317206 L42.8253925,16.7554455 L36.0966854,18.7395421 L36.0985385,16.9159691 L37.6972342,16.4445021 L37.7089262,11.9063854 L36.1044565,11.9063095 L36.0961703,10.2971226 L37.7131883,10.2972745 L37.721658,7.00156375 L36.096,7.00156375 L36.1158673,5.09442431 L42.8852744,5.09480416 Z M63.869028,11.4466026 L63.1652638,18.4515263 L60.2870812,18.4513744 L60.9906917,11.4464506 L63.869028,11.4466026 Z M115.160662,11.2457619 L117.442729,11.2459138 L117.930274,18.2508376 L115.63276,18.2506857 L115.160662,11.2457619 Z M78.036439,6.70595866 L75.8100105,6.70580672 L75.7801001,17.7764686 L78.0066823,17.7766205 L78.036439,6.70595866 Z M129.537739,4.58482061 L129.529424,9.18773933 C129.528191,9.8478387 129.048804,10.3025924 128.354014,10.3025924 L118.286348,10.3019846 L118.296691,4.58428882 L129.537739,4.58482061 Z M96.3221442,9.52826522 L96.322466,10.1719552 L102.459463,10.172259 L102.45924,9.52864506 L96.3221442,9.52826522 Z M91.3696152,3.98175917 C91.3696152,3.98175917 90.9820496,4.98448119 90.1758161,6.15935019 L92.3790254,6.15973004 L92.2343461,7.87451459 L88.5496251,7.87405877 C87.249574,8.89622899 84.997533,9.52768785 84.997533,9.52768785 L84.3971173,8.11928846 C84.3971173,8.11928846 85.5523082,7.60900103 86.5123668,6.30095742 C87.5820689,4.84355768 87.5411652,3.98175917 87.5411652,3.98175917 L91.3696152,3.98175917 Z M52.1507676,3.84007597 L52.1407428,7.70206373 L53.5650792,7.7021397 L53.5731834,4.59217446 L56.9911514,4.5923264 L56.9789388,9.31140255 L53.560861,9.31140255 L52.1365576,9.31117465 L48.7186226,9.31140255 L47.6218594,9.31094674 L44.2038366,9.31140255 L44.1799694,9.31071883 L44.1933021,4.98759594 L44.2150503,4.98759594 L44.2160821,4.59217446 L47.634127,4.5923264 L47.6260446,7.70183582 L48.7228297,7.70183582 L48.7328216,3.84 L52.1507676,3.84007597 Z M126.115124,6.19377959 L121.742519,6.19355168 L121.735727,8.69310163 L126.108387,8.69325357 L126.115124,6.19377959 Z M102.474224,7.23299737 L96.3372266,7.23269349 L96.3292168,7.91930624 L102.466291,7.91961011 L102.474224,7.23299737 Z" id="Combined-Shape-Copy" fill="#2C2F3C"></path>
                    <path d="M41.1908492,23.0400384 L41.1942918,24.6856154 C41.1949993,25.0188667 40.9600891,25.2436479 40.61117,25.2436479 L40.4946345,25.2436479 L41.319457,26.88 L39.6010551,26.88 L38.7762326,25.2436479 L38.1788165,25.2436479 L38.1628423,26.88 L36.4520771,26.88 L36.4773481,23.0400384 L41.1908492,23.0400384 Z M39.4798142,23.7282964 L38.1859344,23.7282964 L38.1724486,24.6422582 L38.8143865,24.6422582 C39.2117221,24.6422582 39.4790984,24.3863428 39.4783693,24.0069668 L39.4798142,23.7282964 Z M44.7089289,23.0400307 L44.6770998,25.9851723 C44.6758237,26.1034823 44.8042544,26.2269429 44.9286557,26.2269429 L46.2645371,26.2269429 C46.4559883,26.2269429 46.5855264,26.1046354 46.5871759,25.9223658 L46.6124435,23.0400307 L47.7952862,23.0400307 L47.7737288,26.3150411 C47.7714934,26.6529817 47.531675,26.8799923 47.1768756,26.8799923 L43.6458354,26.8799923 C43.2559837,26.8799923 42.8530426,26.4937745 42.8555125,26.1223934 L42.8757479,23.0400307 L44.7089289,23.0400307 Z M51.0672461,23.0400307 L51.0419751,26.8799923 L49.3312862,26.8799923 L49.3565572,23.0400307 L51.0672461,23.0400307 Z M54.339206,23.0400307 L54.3236176,24.6422505 L55.6577427,24.6422505 L55.6734074,23.0400307 L57.3840963,23.0400307 L57.3588253,26.8799923 L55.6481364,26.8799923 L55.65975,25.4798758 L54.3255486,25.4798758 L54.313935,26.8799923 L52.6032461,26.8799923 L52.6285171,23.0400307 L54.339206,23.0400307 Z M62.9127664,23.0400307 L62.9292465,23.7283656 L60.6539028,23.7283656 L60.6394612,24.4559065 L62.7283177,24.4559065 L62.7489585,25.2935318 L60.6413922,25.2935318 L60.6097755,26.2163342 L62.7710274,26.2163342 L62.8106706,26.8799923 L58.9200963,26.8799923 L58.9453673,23.0400307 L62.9127664,23.0400307 Z M67.9213271,23.0400307 L67.89969,26.3374885 C67.8975533,26.661976 67.6671853,26.8799923 67.3265138,26.8799923 L64.504385,26.8799923 L64.4652465,26.2382434 L66.1647859,26.2382434 L66.2106382,23.0400307 L67.9213271,23.0400307 Z M73.3267864,23.04 L73.3432665,23.7283349 L71.1858328,23.7283349 L71.1478442,26.2301408 L73.3433084,26.2301408 L73.3767365,26.8799616 L70.31306,26.8799616 C69.8909053,26.8799616 69.4547535,26.4619177 69.4573271,26.0597868 L69.4745469,23.4591201 C69.476153,23.2084322 69.654086,23.04 69.9172454,23.04 L73.3267864,23.04 Z" id="Combined-Shape-Copy-2" fill="#6E748F"></path>
                </g>
                <g id="标签" transform="translate(137.000000, 4.000000)">
                    <rect id="Rectangle" fill="#3055EC" x="0" y="0" width="28" height="16" rx="2"></rect>
                    <text id="Pro" font-family="SFProDisplay-Heavy, SF Pro Display" font-size="14" font-weight="600" fill="#FFFFFF">
                        <tspan x="2.61474609" y="13">Pro</tspan>
                    </text>
                </g>
            </g>
        </g>
    </g>
</svg>